<svg width="289" height="300" viewBox="0 0 289 300" fill="none" xmlns="http://www.w3.org/2000/svg">
<path d="M285.941 64.9932C285.302 63.8989 283.879 62.9353 283.879 62.9353L162.011 0.0857861C162.011 0.0857861 161.175 -0.228695 160.371 0.346584C159.746 0.789253 159.562 1.91771 159.562 1.91771V77.9171V173.395C159.562 173.395 159.451 176.282 160.159 177.965C160.754 179.383 162.981 180.753 162.981 180.753L208.15 204.045L282.195 242.229C282.195 242.229 284.023 243.301 285.376 242.784C286.724 242.275 286.71 240.351 286.71 240.351V67.9789C286.711 67.9789 286.625 66.1792 285.941 64.9932Z" fill="#B72174"/>
<path d="M194.998 95.1736L159.562 77.9171L111.718 54.6167C104.457 51.0804 98.5678 56.0918 98.5678 65.8103V115.538V177.232C98.5678 186.949 104.457 197.689 111.718 201.232L136.074 213.095L194.998 241.793C202.267 245.325 208.151 240.312 208.151 230.595L208.15 204.045L208.151 119.17C208.151 109.453 202.267 98.7131 194.998 95.1736Z" fill="#EC3425"/>
<path d="M108.094 120.019L98.5678 115.538L70.7808 102.465C55.3284 95.1932 42.8 105.486 42.8 125.472V141.596V173.699C42.8 193.673 55.3284 215.767 70.7808 223.036L108.093 240.592C123.544 247.867 136.074 237.563 136.074 217.581L136.074 213.095L136.074 169.359C136.074 149.376 123.544 127.293 108.094 120.019Z" fill="#E87625"/>
<path d="M108.094 120.019L98.5678 115.538V177.232C98.5678 186.949 104.457 197.689 111.718 201.232L136.074 213.095L136.074 169.359C136.074 149.376 123.544 127.293 108.094 120.019Z" fill="#EC3425"/>
<path d="M44.5271 142.684C43.9558 142.306 43.3789 141.946 42.8 141.596C41.4782 140.797 40.1387 140.069 38.779 139.431C17.3606 129.354 0 143.63 0 171.32C0 199 17.3606 229.616 38.779 239.696C54.968 247.306 68.846 241.012 74.6523 225.532C74.723 225.342 74.7842 225.143 74.8524 224.95C76.5927 220.06 77.5693 214.309 77.5693 207.81C77.5693 182.645 63.2228 155.063 44.5271 142.684Z" fill="#F9AC1A"/>
<path d="M44.5271 142.684C43.9558 142.306 43.3789 141.946 42.8 141.596V173.699C42.8 193.673 55.3284 215.767 70.7808 223.036L74.8524 224.95C76.5927 220.06 77.5693 214.309 77.5693 207.81C77.5693 182.645 63.2228 155.063 44.5271 142.684Z" fill="#E87625"/>
<path d="M194.998 95.1736L159.562 77.9171V173.395C159.562 173.395 159.451 176.282 160.159 177.965C160.754 179.383 162.981 180.753 162.981 180.753L208.15 204.045L208.151 119.17C208.151 109.453 202.267 98.7131 194.998 95.1736Z" fill="#B72174"/>
<path d="M19.7476 299.665C16.5506 299.665 13.6416 298.921 11.0205 297.431C8.39941 295.942 6.34424 293.887 4.85498 291.266C3.36572 288.625 2.62109 285.696 2.62109 282.479C2.62109 279.243 3.36572 276.314 4.85498 273.693C6.34424 271.072 8.39941 269.016 11.0205 267.527C13.6416 266.038 16.5506 265.293 19.7476 265.293C23.6593 265.293 27.0449 266.366 29.9043 268.51C32.7835 270.655 34.7295 273.524 35.7422 277.118H30.6191C29.6462 274.993 28.1966 273.325 26.2705 272.114C24.3444 270.903 22.1701 270.297 19.7476 270.297C16.3719 270.297 13.5522 271.469 11.2886 273.812C9.04476 276.135 7.92285 279.024 7.92285 282.479C7.92285 285.915 9.05469 288.804 11.3184 291.147C13.582 293.49 16.3918 294.661 19.7476 294.661C22.1701 294.661 24.3245 294.046 26.2109 292.815C28.0973 291.584 29.5469 289.866 30.5596 287.662H35.8018C34.7891 291.296 32.8232 294.205 29.9043 296.389C27.0052 298.573 23.6196 299.665 19.7476 299.665Z" fill="black"/>
<path d="M71.127 266.008H75.2671V298.951H70.978L70.4121 293.947C68.8633 295.754 66.9769 297.163 64.7529 298.176C62.5488 299.169 60.1263 299.665 57.4854 299.665C54.2884 299.665 51.3893 298.921 48.7881 297.431C46.1868 295.942 44.1416 293.887 42.6523 291.266C41.1829 288.625 40.4482 285.696 40.4482 282.479C40.4482 277.555 42.0666 273.464 45.3032 270.208C48.5597 266.931 52.6204 265.293 57.4854 265.293C60.1263 265.293 62.5687 265.8 64.8125 266.812C67.0563 267.825 68.9526 269.245 70.5015 271.072L71.127 266.008ZM49.2051 291.177C51.5085 293.5 54.3976 294.661 57.8726 294.661C61.3475 294.661 64.2267 293.51 66.5103 291.206C68.8136 288.883 69.9653 285.974 69.9653 282.479C69.9653 278.985 68.8136 276.085 66.5103 273.782C64.2267 271.459 61.3475 270.297 57.8726 270.297C54.3976 270.297 51.5085 271.459 49.2051 273.782C46.9017 276.105 45.75 279.004 45.75 282.479C45.75 285.954 46.9017 288.853 49.2051 291.177Z" fill="black"/>
<path d="M112.29 254.243H117.473V298.951H113.452L112.767 294.274C111.218 295.982 109.351 297.312 107.167 298.265C104.983 299.199 102.62 299.665 100.078 299.665C95.1536 299.665 91.0929 298.037 87.896 294.781C84.6991 291.504 83.1006 287.404 83.1006 282.479C83.1006 279.223 83.8154 276.294 85.2451 273.693C86.6947 271.072 88.7101 269.016 91.2915 267.527C93.8927 266.038 96.8216 265.293 100.078 265.293C102.501 265.293 104.754 265.72 106.839 266.574C108.924 267.428 110.741 268.629 112.29 270.178V254.243ZM91.8276 291.206C94.131 293.51 97.0202 294.661 100.495 294.661C103.97 294.661 106.859 293.5 109.163 291.177C111.466 288.834 112.618 285.934 112.618 282.479C112.618 279.004 111.466 276.105 109.163 273.782C106.859 271.459 103.97 270.297 100.495 270.297C97.0202 270.297 94.131 271.459 91.8276 273.782C89.5441 276.085 88.4023 278.985 88.4023 282.479C88.4023 285.974 89.5441 288.883 91.8276 291.206Z" fill="black"/>
<path d="M164.354 265.293C167.81 265.293 170.599 266.465 172.724 268.808C174.849 271.151 175.911 274.179 175.911 277.892V298.951H170.758L170.729 279.501C170.729 276.522 170.073 274.199 168.763 272.531C167.452 270.863 165.625 270.029 163.282 270.029C160.86 270.029 158.785 271.062 157.057 273.127C155.349 275.172 154.496 277.694 154.496 280.692V298.951H149.432V279.501C149.432 276.522 148.777 274.199 147.466 272.531C146.156 270.863 144.309 270.029 141.926 270.029C139.504 270.029 137.429 271.062 135.701 273.127C133.993 275.172 133.14 277.694 133.14 280.692V298.951H127.927V266.008H131.68L132.514 270.535C133.785 268.887 135.344 267.607 137.19 266.693C139.057 265.76 141.023 265.293 143.088 265.293C145.391 265.293 147.417 265.849 149.164 266.961C150.911 268.073 152.252 269.602 153.185 271.548C154.416 269.602 156.015 268.073 157.98 266.961C159.966 265.849 162.091 265.293 164.354 265.293Z" fill="black"/>
<path d="M185.681 260.319V254.362H191.31V260.319H185.681ZM185.889 298.951V266.008H191.102V298.951H185.889Z" fill="black"/>
<path d="M215.555 299.665C211.127 299.665 207.583 298.335 204.922 295.674C202.281 293.013 200.96 289.469 200.96 285.041V266.008H206.143V284.207C206.143 287.444 206.987 289.995 208.675 291.862C210.363 293.728 212.656 294.661 215.555 294.661C218.474 294.661 220.768 293.728 222.436 291.862C224.123 289.975 224.967 287.424 224.967 284.207V266.008H230.15V285.041C230.15 289.469 228.829 293.013 226.188 295.674C223.548 298.335 220.003 299.665 215.555 299.665Z" fill="black"/>
<path d="M276.466 265.293C279.921 265.293 282.711 266.465 284.835 268.808C286.96 271.151 288.022 274.179 288.022 277.892V298.951H282.87L282.84 279.501C282.84 276.522 282.185 274.199 280.874 272.531C279.563 270.863 277.737 270.029 275.394 270.029C272.971 270.029 270.896 271.062 269.168 273.127C267.461 275.172 266.607 277.694 266.607 280.692V298.951H261.543V279.501C261.543 276.522 260.888 274.199 259.578 272.531C258.267 270.863 256.42 270.029 254.038 270.029C251.615 270.029 249.54 271.062 247.812 273.127C246.105 275.172 245.251 277.694 245.251 280.692V298.951H240.039V266.008H243.792L244.625 270.535C245.896 268.887 247.455 267.607 249.302 266.693C251.168 265.76 253.134 265.293 255.199 265.293C257.503 265.293 259.528 265.849 261.275 266.961C263.023 268.073 264.363 269.602 265.296 271.548C266.528 269.602 268.126 268.073 270.092 266.961C272.077 265.849 274.202 265.293 276.466 265.293Z" fill="black"/>
</svg>
