<svg width="287" height="243" viewBox="0 0 287 243" fill="none" xmlns="http://www.w3.org/2000/svg">
<path d="M286.152 64.9932C285.513 63.8989 284.091 62.9353 284.091 62.9353L162.222 0.0857861C162.222 0.0857861 161.386 -0.228695 160.582 0.346584C159.957 0.789253 159.774 1.91771 159.774 1.91771V77.9171V173.395C159.774 173.395 159.662 176.282 160.37 177.965C160.965 179.383 163.192 180.753 163.192 180.753L208.361 204.045L282.406 242.229C282.406 242.229 284.235 243.301 285.587 242.784C286.936 242.275 286.921 240.351 286.921 240.351V67.9789C286.922 67.9789 286.836 66.1792 286.152 64.9932Z" fill="#B72174"/>
<path d="M195.209 95.1736L159.774 77.9171L111.929 54.6167C104.668 51.0804 98.7789 56.0918 98.7789 65.8103V115.538V177.232C98.7789 186.949 104.668 197.689 111.929 201.232L136.285 213.095L195.209 241.793C202.478 245.325 208.362 240.312 208.362 230.595V204.046V119.17C208.362 109.453 202.478 98.7131 195.209 95.1736Z" fill="#EC3425"/>
<path d="M108.305 120.019L98.779 115.537L70.992 102.465C55.5396 95.1932 43.0112 105.486 43.0112 125.472V141.596V173.699C43.0112 193.673 55.5396 215.767 70.992 223.036L75.0629 224.951L108.305 240.592C123.755 247.867 136.285 237.563 136.285 217.581V213.095V169.359C136.285 149.376 123.756 127.293 108.305 120.019Z" fill="#E87625"/>
<path opacity="0.5" d="M108.305 120.019L98.7789 115.537V177.231C98.7789 186.949 104.668 197.688 111.929 201.231L136.285 213.094V169.358C136.285 149.376 123.756 127.293 108.305 120.019Z" fill="#EC3425"/>
<path d="M44.7383 142.684C44.167 142.306 43.5907 141.946 43.0118 141.596C41.69 140.796 40.3498 140.069 38.9901 139.431C17.5718 129.354 0.211182 143.63 0.211182 171.32C0.211182 199 17.5718 229.616 38.9901 239.696C55.1792 247.306 69.0572 241.012 74.8634 225.532C74.9341 225.342 74.9954 225.143 75.0635 224.95C76.8039 220.06 77.7804 214.309 77.7804 207.81C77.7804 182.645 63.434 155.063 44.7383 142.684Z" fill="#F9AC1A"/>
<path opacity="0.5" d="M44.7383 142.684C44.167 142.306 43.5907 141.946 43.0118 141.596V173.698C43.0118 193.672 55.5403 215.766 70.9926 223.035L75.0636 224.951C76.8039 220.06 77.7805 214.31 77.7805 207.811C77.7805 182.645 63.434 155.063 44.7383 142.684Z" fill="#E87625"/>
<path opacity="0.5" d="M195.209 95.1736L159.774 77.9171V173.395C159.774 173.395 159.662 176.282 160.371 177.965C160.966 179.383 163.193 180.753 163.193 180.753L208.362 204.045V119.17C208.362 109.453 202.478 98.7131 195.209 95.1736Z" fill="#B72174"/>
</svg>
