<svg width="817" height="143" viewBox="0 0 817 143" fill="none" xmlns="http://www.w3.org/2000/svg">
<path d="M268.524 119.395C262.287 119.395 256.612 117.942 251.499 115.037C246.386 112.131 242.376 108.122 239.471 103.009C236.566 97.8568 235.113 92.1431 235.113 85.8677C235.113 79.5535 236.566 73.8398 239.471 68.7266C242.376 63.6133 246.386 59.604 251.499 56.6987C256.612 53.7935 262.287 52.3408 268.524 52.3408C276.155 52.3408 282.76 54.4326 288.338 58.6162C293.955 62.7998 297.751 68.3973 299.727 75.4087H289.732C287.834 71.2638 285.007 68.0099 281.249 65.647C277.492 63.284 273.25 62.1025 268.524 62.1025C261.939 62.1025 256.438 64.388 252.022 68.959C247.645 73.4912 245.456 79.1274 245.456 85.8677C245.456 92.5692 247.664 98.2054 252.08 102.776C256.496 107.347 261.977 109.633 268.524 109.633C273.25 109.633 277.453 108.432 281.133 106.03C284.813 103.629 287.641 100.278 289.616 95.978H299.843C297.867 103.067 294.032 108.742 288.338 113.003C282.682 117.264 276.078 119.395 268.524 119.395ZM368.756 53.7354H376.833V118H368.465L367.361 108.238C364.34 111.763 360.66 114.514 356.321 116.489C352.021 118.426 347.296 119.395 342.144 119.395C335.907 119.395 330.251 117.942 325.177 115.037C320.102 112.131 316.112 108.122 313.207 103.009C310.34 97.8568 308.907 92.1431 308.907 85.8677C308.907 76.2609 312.064 68.2811 318.378 61.9282C324.731 55.5366 332.653 52.3408 342.144 52.3408C347.296 52.3408 352.06 53.3286 356.438 55.3042C360.815 57.2798 364.514 60.0495 367.536 63.6133L368.756 53.7354ZM325.99 102.834C330.484 107.367 336.12 109.633 342.899 109.633C349.678 109.633 355.295 107.386 359.75 102.893C364.243 98.3604 366.49 92.6854 366.49 85.8677C366.49 79.05 364.243 73.3944 359.75 68.9009C355.295 64.3687 349.678 62.1025 342.899 62.1025C336.12 62.1025 330.484 64.3687 325.99 68.9009C321.497 73.4331 319.25 79.0887 319.25 85.8677C319.25 92.6466 321.497 98.3022 325.99 102.834ZM449.058 30.7837H459.168V118H451.324L449.987 108.877C446.966 112.209 443.325 114.804 439.063 116.664C434.802 118.484 430.193 119.395 425.234 119.395C415.628 119.395 407.706 116.218 401.469 109.865C395.233 103.474 392.114 95.4744 392.114 85.8677C392.114 79.5148 393.509 73.8011 396.298 68.7266C399.126 63.6133 403.057 59.604 408.093 56.6987C413.168 53.7935 418.882 52.3408 425.234 52.3408C429.96 52.3408 434.357 53.1737 438.424 54.8394C442.492 56.505 446.036 58.8486 449.058 61.8701V30.7837ZM409.139 102.893C413.633 107.386 419.269 109.633 426.048 109.633C432.827 109.633 438.463 107.367 442.957 102.834C447.45 98.2635 449.697 92.6079 449.697 85.8677C449.697 79.0887 447.45 73.4331 442.957 68.9009C438.463 64.3687 432.827 62.1025 426.048 62.1025C419.269 62.1025 413.633 64.3687 409.139 68.9009C404.684 73.3944 402.457 79.05 402.457 85.8677C402.457 92.6854 404.684 98.3604 409.139 102.893ZM550.626 52.3408C557.366 52.3408 562.809 54.6263 566.954 59.1973C571.098 63.7682 573.171 69.6756 573.171 76.9194V118H563.119L563.061 80.0571C563.061 74.2466 561.782 69.7144 559.226 66.4604C556.669 63.2065 553.105 61.5796 548.534 61.5796C543.808 61.5796 539.76 63.5939 536.39 67.6226C533.059 71.6125 531.393 76.5321 531.393 82.3813V118H521.515V80.0571C521.515 74.2466 520.237 69.7144 517.68 66.4604C515.124 63.2065 511.521 61.5796 506.873 61.5796C502.147 61.5796 498.099 63.5939 494.729 67.6226C491.397 71.6125 489.731 76.5321 489.731 82.3813V118H479.563V53.7354H486.884L488.511 62.5674C490.99 59.3522 494.031 56.8537 497.634 55.0718C501.275 53.2511 505.11 52.3408 509.139 52.3408C513.632 52.3408 517.583 53.4255 520.992 55.5947C524.401 57.764 527.016 60.7467 528.836 64.543C531.238 60.7467 534.356 57.764 538.191 55.5947C542.065 53.4255 546.21 52.3408 550.626 52.3408ZM592.229 42.6372V31.0161H603.211V42.6372H592.229ZM592.636 118V53.7354H602.805V118H592.636ZM650.509 119.395C641.871 119.395 634.956 116.799 629.766 111.608C624.614 106.418 622.038 99.5031 622.038 90.8647V53.7354H632.148V89.2378C632.148 95.5519 633.794 100.53 637.087 104.171C640.38 107.812 644.854 109.633 650.509 109.633C656.204 109.633 660.678 107.812 663.932 104.171C667.224 100.491 668.871 95.5132 668.871 89.2378V53.7354H678.981V90.8647C678.981 99.5031 676.405 106.418 671.253 111.608C666.101 116.799 659.186 119.395 650.509 119.395ZM769.335 52.3408C776.075 52.3408 781.518 54.6263 785.663 59.1973C789.807 63.7682 791.88 69.6756 791.88 76.9194V118H781.828L781.77 80.0571C781.77 74.2466 780.491 69.7144 777.935 66.4604C775.378 63.2065 771.814 61.5796 767.243 61.5796C762.517 61.5796 758.469 63.5939 755.099 67.6226C751.768 71.6125 750.102 76.5321 750.102 82.3813V118H740.224V80.0571C740.224 74.2466 738.946 69.7144 736.389 66.4604C733.833 63.2065 730.23 61.5796 725.582 61.5796C720.856 61.5796 716.808 63.5939 713.438 67.6226C710.106 71.6125 708.44 76.5321 708.44 82.3813V118H698.272V53.7354H705.593L707.22 62.5674C709.699 59.3522 712.74 56.8537 716.343 55.0718C719.984 53.2511 723.819 52.3408 727.848 52.3408C732.341 52.3408 736.292 53.4255 739.701 55.5947C743.11 57.764 745.725 60.7467 747.545 64.543C749.947 60.7467 753.065 57.764 756.9 55.5947C760.774 53.4255 764.919 52.3408 769.335 52.3408Z" fill="white"/>
<rect x="48.6201" y="1" width="145.38" height="141" stroke="#B72174" stroke-width="2"/>
<rect x="29.514" y="33.6603" width="111.719" height="108.339" rx="21" stroke="#EC3425" stroke-width="2"/>
<rect x="1" y="66.321" width="78.0582" height="75.679" rx="37.8395" stroke="#E87625" stroke-width="2"/>
</svg>
